<svg width="40" height="40" viewBox="0 0 40 40" fill="none" xmlns="http://www.w3.org/2000/svg">
<g id="eva:award-fill">
<path id="Vector" d="M31.666 34.5832L27.816 19.5833C29.2394 17.8122 30.0103 15.6054 29.9993 13.3333C29.9993 10.6811 28.9458 8.13755 27.0704 6.26218C25.195 4.38682 22.6515 3.33325 19.9993 3.33325C17.3472 3.33325 14.8036 4.38682 12.9283 6.26218C11.0529 8.13755 9.99933 10.6811 9.99933 13.3333C9.99476 15.6229 10.784 17.8434 12.2327 19.6166L8.33266 34.5832C8.24971 34.9031 8.26372 35.2405 8.37292 35.5524C8.48213 35.8643 8.68159 36.1367 8.94596 36.335C9.21034 36.5332 9.52769 36.6485 9.8577 36.666C10.1877 36.6835 10.5155 36.6025 10.7993 36.4333L19.6827 31.2166L29.1493 36.4499C29.4051 36.6043 29.7008 36.6797 29.9993 36.6666C30.2581 36.6748 30.5153 36.6227 30.7504 36.5143C30.9855 36.4058 31.1922 36.2441 31.3539 36.0419C31.5157 35.8397 31.6281 35.6026 31.6823 35.3494C31.7364 35.0963 31.7309 34.8339 31.666 34.5832ZM19.9993 6.66658C21.3179 6.66658 22.6068 7.05758 23.7031 7.79012C24.7995 8.52266 25.6539 9.56385 26.1585 10.782C26.6631 12.0002 26.7951 13.3406 26.5379 14.6339C26.2807 15.9271 25.6457 17.1149 24.7134 18.0473C23.781 18.9796 22.5931 19.6146 21.2999 19.8718C20.0067 20.1291 18.6663 19.997 17.4481 19.4924C16.2299 18.9879 15.1887 18.1334 14.4562 17.0371C13.7237 15.9407 13.3327 14.6518 13.3327 13.3333C13.3327 11.5651 14.035 9.86945 15.2853 8.61921C16.5355 7.36896 18.2312 6.66658 19.9993 6.66658Z" fill="#181A18"/>
</g>
</svg>
