<svg width="80" height="80" viewBox="0 0 80 80" fill="none" xmlns="http://www.w3.org/2000/svg">
<g id="eva:people-fill">
<path id="Vector" d="M30 36.6667C32.6371 36.6667 35.2149 35.8847 37.4076 34.4196C39.6003 32.9545 41.3092 30.8721 42.3184 28.4358C43.3276 25.9994 43.5916 23.3185 43.0771 20.7321C42.5627 18.1457 41.2928 15.7699 39.4281 13.9052C37.5634 12.0405 35.1876 10.7707 32.6012 10.2562C30.0148 9.74173 27.3339 10.0058 24.8976 11.0149C22.4612 12.0241 20.3788 13.7331 18.9137 15.9257C17.4487 18.1184 16.6667 20.6963 16.6667 23.3333C16.6667 26.8696 18.0714 30.2609 20.5719 32.7614C23.0724 35.2619 26.4638 36.6667 30 36.6667ZM56.6667 43.3333C58.6445 43.3333 60.5779 42.7468 62.2224 41.648C63.8669 40.5492 65.1486 38.9874 65.9055 37.1602C66.6623 35.3329 66.8604 33.3222 66.4745 31.3824C66.0887 29.4426 65.1363 27.6608 63.7377 26.2623C62.3392 24.8637 60.5574 23.9113 58.6176 23.5255C56.6778 23.1396 54.6671 23.3377 52.8398 24.0945C51.0126 24.8514 49.4508 26.1331 48.352 27.7776C47.2532 29.4221 46.6667 31.3555 46.6667 33.3333C46.6667 35.9855 47.7202 38.529 49.5956 40.4044C51.471 42.2798 54.0145 43.3333 56.6667 43.3333ZM70 66.6667C70.8841 66.6667 71.7319 66.3155 72.357 65.6904C72.9821 65.0652 73.3333 64.2174 73.3333 63.3333C73.3307 60.218 72.4549 57.1658 70.8054 54.5229C69.1558 51.8801 66.7986 49.7525 64.0012 48.3816C61.2037 47.0106 58.078 46.4511 54.9786 46.7667C51.8793 47.0822 48.9305 48.2601 46.4667 50.1667C43.2017 46.9145 39.0469 44.702 34.5261 43.8081C30.0053 42.9142 25.3211 43.379 21.0641 45.1438C16.8071 46.9086 13.168 49.8945 10.6058 53.7248C8.04356 57.5551 6.6729 62.0584 6.66666 66.6667C6.66666 67.5507 7.01785 68.3986 7.64297 69.0237C8.2681 69.6488 9.11594 70 10 70H50C50.8841 70 51.7319 69.6488 52.357 69.0237C52.9821 68.3986 53.3333 67.5507 53.3333 66.6667" fill="black"/>
</g>
</svg>
