<svg width="80" height="80" viewBox="0 0 80 80" fill="none" xmlns="http://www.w3.org/2000/svg">
<g id="eva:briefcase-fill">
<path id="Vector" d="M23.3333 70H56.6667V23.3333H53.3333V18.3333C53.3333 16.1232 52.4554 14.0036 50.8926 12.4408C49.3298 10.878 47.2101 10 45 10H35C32.7899 10 30.6703 10.878 29.1075 12.4408C27.5446 14.0036 26.6667 16.1232 26.6667 18.3333V23.3333H23.3333V70ZM33.3333 18.3333C33.3333 17.8913 33.5089 17.4674 33.8215 17.1548C34.1341 16.8423 34.558 16.6667 35 16.6667H45C45.442 16.6667 45.866 16.8423 46.1785 17.1548C46.4911 17.4674 46.6667 17.8913 46.6667 18.3333V23.3333H33.3333V18.3333ZM63.3333 23.3333V70C65.9855 70 68.529 68.9464 70.4044 67.0711C72.2798 65.1957 73.3333 62.6522 73.3333 60V33.3333C73.3333 30.6812 72.2798 28.1376 70.4044 26.2623C68.529 24.3869 65.9855 23.3333 63.3333 23.3333ZM16.6667 23.3333C14.0145 23.3333 11.471 24.3869 9.5956 26.2623C7.72024 28.1376 6.66667 30.6812 6.66667 33.3333V60C6.66667 62.6522 7.72024 65.1957 9.5956 67.0711C11.471 68.9464 14.0145 70 16.6667 70V23.3333Z" fill="black"/>
</g>
</svg>
