<svg width="80" height="80" viewBox="0 0 80 80" fill="none" xmlns="http://www.w3.org/2000/svg">
<g id="eva:email-fill">
<path id="Vector" d="M63.3333 13.3334H16.6667C14.0145 13.3334 11.471 14.3869 9.5956 16.2623C7.72024 18.1377 6.66667 20.6812 6.66667 23.3334V56.6667C6.66667 59.3189 7.72024 61.8624 9.5956 63.7378C11.471 65.6131 14.0145 66.6667 16.6667 66.6667H63.3333C65.9855 66.6667 68.529 65.6131 70.4044 63.7378C72.2798 61.8624 73.3333 59.3189 73.3333 56.6667V23.3334C73.3333 20.6812 72.2798 18.1377 70.4044 16.2623C68.529 14.3869 65.9855 13.3334 63.3333 13.3334ZM63.3333 20L41.6667 34.9C41.1599 35.1926 40.5851 35.3466 40 35.3466C39.4149 35.3466 38.8401 35.1926 38.3333 34.9L16.6667 20H63.3333Z" fill="black"/>
</g>
</svg>
