<svg width="60" height="60" viewBox="0 0 60 60" fill="none" xmlns="http://www.w3.org/2000/svg">
<g id="eva:pricetags-fill">
<path id="Vector" d="M53.675 28.95L37.625 12.925C37.2161 12.5138 36.677 12.2575 36.1 12.2L12.725 10C12.3588 9.96633 11.9897 10.0138 11.644 10.1392C11.2983 10.2645 10.9845 10.4645 10.725 10.725C10.4645 10.9845 10.2645 11.2983 10.1392 11.644C10.0138 11.9897 9.96633 12.3588 10 12.725L12.2 36.1C12.2575 36.677 12.5138 37.2161 12.925 37.625L28.95 53.675C29.8095 54.5227 30.9678 54.9986 32.175 55C33.3746 54.9975 34.5247 54.5213 35.375 53.675L53.675 35.375C54.5253 34.5221 55.0028 33.3669 55.0028 32.1625C55.0028 30.9581 54.5253 29.8029 53.675 28.95ZM28.9 28.95C28.3757 29.4749 27.7076 29.8325 26.98 29.9776C26.2525 30.1227 25.4982 30.0487 24.8127 29.765C24.1272 29.4813 23.5413 29.0007 23.129 28.3839C22.7168 27.7671 22.4967 27.0419 22.4967 26.3C22.4967 25.5581 22.7168 24.8329 23.129 24.2161C23.5413 23.5993 24.1272 23.1187 24.8127 22.835C25.4982 22.5513 26.2525 22.4773 26.98 22.6224C27.7076 22.7675 28.3757 23.1251 28.9 23.65C29.5931 24.3478 29.9821 25.2915 29.9821 26.275C29.9821 27.2586 29.5931 28.2022 28.9 28.9V28.95Z" fill="black"/>
</g>
</svg>
