<svg width="20" height="20" viewBox="0 0 20 20" fill="none" xmlns="http://www.w3.org/2000/svg">
<g id="eva:arrow-down-fill">
<path id="Vector" d="M10.001 14.1667C9.78823 14.1657 9.5784 14.1173 9.38669 14.025C9.19499 13.9328 9.02622 13.799 8.89264 13.6334L5.38431 9.38341C5.1793 9.12755 5.05029 8.81925 5.01199 8.49364C4.97368 8.16803 5.02761 7.8382 5.16764 7.54175C5.28121 7.2841 5.46653 7.06459 5.70149 6.90943C5.93644 6.75427 6.2111 6.67003 6.49264 6.66675H13.5093C13.7909 6.67003 14.0655 6.75427 14.3005 6.90943C14.5354 7.06459 14.7207 7.2841 14.8343 7.54175C14.9743 7.8382 15.0283 8.16803 14.99 8.49364C14.9517 8.81925 14.8226 9.12755 14.6176 9.38341L11.1093 13.6334C10.9757 13.799 10.807 13.9328 10.6153 14.025C10.4236 14.1173 10.2137 14.1657 10.001 14.1667Z" fill="#49735A"/>
</g>
</svg>
