<svg width="80" height="80" viewBox="0 0 80 80" fill="none" xmlns="http://www.w3.org/2000/svg">
<g id="eva:eye-fill">
<g id="Group">
<path id="Vector" d="M40 45C42.7614 45 45 42.7614 45 40C45 37.2386 42.7614 35 40 35C37.2386 35 35 37.2386 35 40C35 42.7614 37.2386 45 40 45Z" fill="black"/>
<path id="Vector_2" d="M72.9 38.3334C70.7667 34.6334 59.0333 16.0667 39.1 16.6667C20.6667 17.1334 9.99999 33.3334 7.09999 38.3334C6.80743 38.8401 6.65341 39.4149 6.65341 40C6.65341 40.5851 6.80743 41.16 7.09999 41.6667C9.19999 45.3 20.4333 63.3333 40.0667 63.3333H40.9C59.3333 62.8667 70.0333 46.6667 72.9 41.6667C73.1926 41.16 73.3466 40.5851 73.3466 40C73.3466 39.4149 73.1926 38.8401 72.9 38.3334ZM40 51.6667C37.6925 51.6667 35.4369 50.9824 33.5183 49.7005C31.5998 48.4185 30.1044 46.5965 29.2214 44.4647C28.3384 42.3328 28.1073 39.9871 28.5575 37.724C29.0077 35.4609 30.1188 33.3821 31.7504 31.7504C33.382 30.1188 35.4608 29.0077 37.7239 28.5575C39.9871 28.1074 42.3328 28.3384 44.4646 29.2214C46.5964 30.1044 48.4185 31.5998 49.7005 33.5184C50.9824 35.4369 51.6667 37.6926 51.6667 40C51.6667 43.0942 50.4375 46.0617 48.2496 48.2496C46.0616 50.4375 43.0942 51.6667 40 51.6667Z" fill="black"/>
</g>
</g>
</svg>
