<svg width="80" height="80" viewBox="0 0 80 80" fill="none" xmlns="http://www.w3.org/2000/svg">
<g id="eva:sun-fill">
<path id="Vector" d="M40 20C40.8841 20 41.7319 19.6488 42.357 19.0237C42.9821 18.3986 43.3333 17.5507 43.3333 16.6667V9.99999C43.3333 9.11593 42.9821 8.26809 42.357 7.64297C41.7319 7.01785 40.8841 6.66666 40 6.66666C39.1159 6.66666 38.2681 7.01785 37.643 7.64297C37.0179 8.26809 36.6667 9.11593 36.6667 9.99999V16.6667C36.6667 17.5507 37.0179 18.3986 37.643 19.0237C38.2681 19.6488 39.1159 20 40 20ZM70 36.6667H63.3333C62.4493 36.6667 61.6014 37.0178 60.9763 37.643C60.3512 38.2681 60 39.1159 60 40C60 40.884 60.3512 41.7319 60.9763 42.357C61.6014 42.9821 62.4493 43.3333 63.3333 43.3333H70C70.8841 43.3333 71.7319 42.9821 72.357 42.357C72.9821 41.7319 73.3333 40.884 73.3333 40C73.3333 39.1159 72.9821 38.2681 72.357 37.643C71.7319 37.0178 70.8841 36.6667 70 36.6667ZM20 40C20 39.1159 19.6488 38.2681 19.0237 37.643C18.3986 37.0178 17.5507 36.6667 16.6667 36.6667H10C9.11594 36.6667 8.2681 37.0178 7.64297 37.643C7.01785 38.2681 6.66666 39.1159 6.66666 40C6.66666 40.884 7.01785 41.7319 7.64297 42.357C8.2681 42.9821 9.11594 43.3333 10 43.3333H16.6667C17.5507 43.3333 18.3986 42.9821 19.0237 42.357C19.6488 41.7319 20 40.884 20 40ZM20.7333 16.6667C20.0836 16.0522 19.2163 15.7211 18.3224 15.7461C17.4285 15.7711 16.5811 16.1502 15.9667 16.8C15.3522 17.4498 15.0211 18.317 15.0461 19.2109C15.0711 20.1049 15.4502 20.9522 16.1 21.5667L20.9 26.2C21.2221 26.511 21.6036 26.754 22.0217 26.9143C22.4397 27.0747 22.8858 27.1492 23.3333 27.1333C23.7823 27.1316 24.2264 27.0392 24.6388 26.8616C25.0512 26.6841 25.4235 26.425 25.7333 26.1C26.3542 25.4754 26.7026 24.6306 26.7026 23.75C26.7026 22.8694 26.3542 22.0245 25.7333 21.4L20.7333 16.6667ZM56.6667 27.1333C57.5249 27.1299 58.3487 26.7956 58.9667 26.2L63.7667 21.5667C64.3522 20.9548 64.6829 20.1431 64.6917 19.2962C64.7004 18.4494 64.3864 17.631 63.8136 17.0072C63.2408 16.3835 62.452 16.0011 61.6075 15.9379C60.763 15.8746 59.926 16.1352 59.2667 16.6667L54.4667 21.4C53.8458 22.0245 53.4974 22.8694 53.4974 23.75C53.4974 24.6306 53.8458 25.4754 54.4667 26.1C55.0438 26.7091 55.8294 27.0781 56.6667 27.1333ZM40 60C39.1159 60 38.2681 60.3512 37.643 60.9763C37.0179 61.6014 36.6667 62.4493 36.6667 63.3333V70C36.6667 70.884 37.0179 71.7319 37.643 72.357C38.2681 72.9821 39.1159 73.3333 40 73.3333C40.8841 73.3333 41.7319 72.9821 42.357 72.357C42.9821 71.7319 43.3333 70.884 43.3333 70V63.3333C43.3333 62.4493 42.9821 61.6014 42.357 60.9763C41.7319 60.3512 40.8841 60 40 60ZM59.1 53.8C58.4635 53.1856 57.609 52.8492 56.7244 52.8648C55.8399 52.8804 54.9978 53.2468 54.3833 53.8833C53.7689 54.5198 53.4325 55.3744 53.4482 56.2589C53.4638 57.1435 53.8301 57.9856 54.4667 58.6L59.2667 63.3333C59.8846 63.9289 60.7084 64.2632 61.5667 64.2667C62.0133 64.2693 62.4559 64.1821 62.8682 64.0103C63.2805 63.8385 63.654 63.5856 63.9667 63.2667C64.2791 62.9568 64.5271 62.5881 64.6963 62.1819C64.8655 61.7757 64.9527 61.34 64.9527 60.9C64.9527 60.46 64.8655 60.0243 64.6963 59.6181C64.5271 59.2119 64.2791 58.8432 63.9667 58.5333L59.1 53.8ZM20.9 53.8L16.1 58.4333C15.7876 58.7432 15.5396 59.1119 15.3704 59.5181C15.2011 59.9243 15.114 60.36 15.114 60.8C15.114 61.24 15.2011 61.6757 15.3704 62.0819C15.5396 62.4881 15.7876 62.8568 16.1 63.1667C16.4126 63.4856 16.7862 63.7385 17.1985 63.9103C17.6108 64.0821 18.0534 64.1693 18.5 64.1667C19.3217 64.1737 20.1171 63.8769 20.7333 63.3333L25.5333 58.7C26.1699 58.0856 26.5362 57.2435 26.5519 56.3589C26.5675 55.4744 26.2311 54.6198 25.6167 53.9833C25.0022 53.3468 24.1601 52.9804 23.2756 52.9648C22.391 52.9492 21.5365 53.2856 20.9 53.9V53.8ZM40 26.6667C37.3629 26.6667 34.7851 27.4486 32.5924 28.9137C30.3997 30.3788 28.6908 32.4612 27.6816 34.8975C26.6724 37.3339 26.4084 40.0148 26.9229 42.6012C27.4373 45.1876 28.7072 47.5634 30.5719 49.4281C32.4366 51.2928 34.8124 52.5627 37.3988 53.0771C39.9852 53.5916 42.6661 53.3276 45.1024 52.3184C47.5388 51.3092 49.6212 49.6003 51.0863 47.4076C52.5513 45.2149 53.3333 42.6371 53.3333 40C53.3333 36.4638 51.9286 33.0724 49.4281 30.5719C46.9276 28.0714 43.5362 26.6667 40 26.6667Z" fill="black"/>
</g>
</svg>
